<?xml version="1.0" standalone="no"?>
<!DOCTYPE svg PUBLIC "-//W3C//DTD SVG 1.1//EN" "http://www.w3.org/Graphics/SVG/1.1/DTD/svg11.dtd" >
<svg xmlns="http://www.w3.org/2000/svg">
<metadata>Generated by IcoMoon</metadata>
<defs>
<font id="icomoon" horiz-adv-x="1024">
<font-face units-per-em="1024" ascent="960" descent="-64" />
<missing-glyph horiz-adv-x="1024" />
<glyph unicode="&#x20;" horiz-adv-x="512" d="" />
<glyph unicode="&#xe900;" d="M698.921 610.54c0-103.233-83.687-186.921-186.921-186.921s-186.921 83.687-186.921 186.921c0 103.233 83.687 186.921 186.921 186.921s186.921-83.687 186.921-186.921z" />
<glyph unicode="&#xe901;" d="M520.127 634.921v12.19c0 2.155 0.857 4.223 2.38 5.747s3.591 2.38 5.747 2.38h8.127v20.317h-16.254c-6.466 0-12.668-2.569-17.24-7.141s-7.141-10.774-7.141-17.24v-16.254h-16.254v-24.381h16.254v-65.016h24.381v65.016h16.254l8.127 24.381h-24.381z" />
<glyph unicode="&#xe902;" d="M698.921 610.54c0-103.233-83.687-186.921-186.921-186.921s-186.921 83.687-186.921 186.921c0 103.233 83.687 186.921 186.921 186.921s186.921-83.687 186.921-186.921z" />
<glyph unicode="&#xe903;" d="M457.967 556.497c-12.321 12.321-10.914 28.785-10.914 54.076 0 24.706-1.626 41.56 10.914 54.059 7.377 6.92 17.162 10.693 27.275 10.512 11.971 0.536 41.609 0.561 53.572 0 24.47-1.13 36.726-14.965 37.799-37.802 0.528-11.963 0.561-41.592 0-53.563-0.886-19.334-9.98-30.072-22.032-34.778-8.85-3.43-17.497-3.413-42.552-3.413-5.079 0-9.842-0.072-14.312-0.072-17.018 0.016-29.811 1.040-39.75 10.98zM557.751 564.779c8.062 8.127 7.55 19.016 7.55 45.794 0 17.351-0.065 19.406-0.382 26.257-1.357 30.070-24.015 27.024-52.882 27.024l-0.253 0.163c-17.367 0-19.407-0.089-26.307-0.325-30.070-1.544-26.956-23.104-26.956-53.028 0-22.13-1.625-36.719 7.477-45.805 7.924-7.948 18.781-7.54 45.869-7.54 26.315-0.008 37.693-0.731 45.885 7.461zM478.692 610.549c-0.006 4.384 0.854 8.724 2.529 12.774s4.133 7.73 7.233 10.829c3.1 3.1 6.78 5.556 10.832 7.231s8.392 2.534 12.775 2.527c8.849 0 17.334-3.513 23.591-9.769s9.771-14.744 9.771-23.592c-0.013-8.849-3.54-17.331-9.806-23.579s-14.755-9.753-23.604-9.743c-8.837 0-17.312 3.513-23.561 9.762s-9.76 14.722-9.76 23.559zM490.394 610.549c-0.001-2.844 0.558-5.66 1.647-8.29s2.683-5.020 4.693-7.031c2.011-2.012 4.4-3.606 7.028-4.695s5.445-1.651 8.29-1.651c2.844-0.001 5.661 0.558 8.29 1.647s5.016 2.687 7.027 4.699c2.011 2.012 3.605 4.402 4.692 7.031s1.645 5.445 1.642 8.29c0.001 2.844-0.558 5.659-1.646 8.286s-2.683 5.013-4.693 7.023c-2.011 2.011-4.398 3.607-7.025 4.695s-5.443 1.647-8.286 1.647c-2.846 0.004-5.665-0.553-8.295-1.639s-5.022-2.679-7.036-4.69c-2.014-2.011-3.611-4.399-4.701-7.028s-1.651-5.448-1.651-8.294h0.025zM538.945 645.227c0.001 1.024 0.203 2.035 0.597 2.98s0.967 1.805 1.691 2.528c0.725 0.722 1.585 1.295 2.531 1.686s1.959 0.592 2.983 0.591c2.066 0 4.047-0.822 5.508-2.281s2.284-3.439 2.285-5.504c0.002-1.024-0.199-2.038-0.591-2.984s-0.965-1.807-1.689-2.532c-0.724-0.724-1.584-1.295-2.53-1.686s-1.96-0.592-2.984-0.592c-1.028-0.004-2.046 0.197-2.997 0.588s-1.816 0.964-2.543 1.69c-0.727 0.727-1.304 1.593-1.696 2.544s-0.593 1.968-0.59 2.996l0.025-0.024z" />
<glyph unicode="&#xe904;" d="M698.921 610.54c0-103.233-83.687-186.921-186.921-186.921s-186.921 83.687-186.921 186.921c0 103.233 83.687 186.921 186.921 186.921s186.921-83.687 186.921-186.921z" />
<glyph unicode="&#xe905;" d="M577.016 646.804c-4.892-2.133-10.064-3.551-15.36-4.21 5.581 3.311 9.753 8.553 11.727 14.734-5.226-3.099-10.943-5.282-16.904-6.453-3.656 3.9-8.399 6.61-13.615 7.78s-10.663 0.744-15.634-1.221c-4.971-1.965-9.236-5.379-12.242-9.8s-4.614-9.643-4.614-14.988c-0.021-2.043 0.186-4.082 0.618-6.079-10.605 0.517-20.982 3.266-30.452 8.068s-17.819 11.548-24.503 19.799c-3.43-5.864-4.493-12.818-2.971-19.439s5.516-12.412 11.163-16.19c-4.217 0.103-8.348 1.217-12.044 3.251v-0.293c0.015-6.154 2.145-12.115 6.033-16.884s9.3-8.056 15.324-9.309c-2.28-0.601-4.631-0.896-6.989-0.878-1.694-0.030-3.386 0.123-5.047 0.455 1.722-5.291 5.043-9.917 9.504-13.244s9.843-5.187 15.406-5.326c-9.435-7.382-21.072-11.388-33.052-11.378-2.133 0.004-4.264 0.145-6.38 0.423 12.19-7.855 26.394-12.010 40.895-11.963 9.982-0.069 19.878 1.846 29.113 5.633s17.627 9.373 24.686 16.43c7.059 7.057 12.646 15.447 16.435 24.682s5.706 19.131 5.639 29.112c0 1.178-0.041 2.316-0.098 3.446 5.258 3.763 9.786 8.453 13.361 13.84z" />
<glyph unicode="&#xe906;" d="M698.921 610.54c0-103.233-83.687-186.921-186.921-186.921s-186.921 83.687-186.921 186.921c0 103.233 83.687 186.921 186.921 186.921s186.921-83.687 186.921-186.921z" />
<glyph unicode="&#xe907;" d="M512.032 569.905c-15.823 0-36.148 0.244-44.381 0.707-7.542 0.52-11.494 1.47-15.151 7.947s-5.516 17.88-5.516 35.987v0.082c0 18.367 1.696 29.484 5.516 36.050 3.527 6.233 7.357 7.428 15.167 7.875 8.298 0.553 29.086 0.748 44.365 0.748s36.011-0.195 44.325-0.748c7.81-0.447 11.648-1.625 15.135-7.875 3.828-6.502 5.532-17.611 5.532-36.068v-0.057c0-18.465-1.696-29.574-5.516-36.011-3.495-6.193-7.317-7.412-15.151-7.932-8.208-0.455-28.51-0.707-44.325-0.707zM495.778 638.984v-48.762l40.635 24.381-40.635 24.381z" />
<glyph unicode="&#xe910;" d="M512-64c-282.77 0-512 229.23-512 512s229.23 512 512 512c282.77 0 512-229.23 512-512v0c0-282.77-229.23-512-512-512v0zM512 915.478c-258.181 0-467.478-209.297-467.478-467.478s209.297-467.478 467.478-467.478c258.181 0 467.478 209.297 467.478 467.478v0c0 258.181-209.297 467.478-467.478 467.478v0z" />
<glyph unicode="&#xe911;" d="M512 336.696c-43.409 0-99.061 0-121.544 2.003s-31.388 4.007-41.405 22.261c-9.987 24.020-15.788 51.922-15.788 81.178 0 5.902 0.236 11.749 0.699 17.532l-0.049-0.762c0 50.31 4.675 80.807 15.137 98.838s20.257 20.257 41.628 22.261 79.471 1.558 121.322 1.558 98.616 0 121.322-2.003 31.833-4.452 41.405-22.261 15.36-47.638 15.36-98.17v0c0-50.532-4.675-81.030-15.137-98.616s-20.035-20.257-41.405-22.261-78.136-1.558-121.544-1.558zM467.478 525.913v-133.565l111.304 66.783z" />
<glyph unicode="&#xe912;" d="M512-64c-282.77 0-512 229.23-512 512s229.23 512 512 512c282.77 0 512-229.23 512-512v0c0-282.77-229.23-512-512-512v0zM512 915.478c-258.181 0-467.478-209.297-467.478-467.478s209.297-467.478 467.478-467.478c258.181 0 467.478 209.297 467.478 467.478v0c0 258.181-209.297 467.478-467.478 467.478v0z" />
<glyph unicode="&#xe913;" d="M690.087 547.283c-12.239-5.507-26.438-9.574-41.311-11.495l-0.762-0.080c15.101 9.084 26.446 23.1 31.91 39.779l0.145 0.513c-13.331-8.012-28.846-14.115-45.369-17.43l-0.933-0.156c-13.351 14.179-32.246 23.009-53.204 23.009-40.275 0-72.935-32.609-73.016-72.866v-0.008c-0.001-0.124-0.001-0.27-0.001-0.417 0-5.769 0.649-11.386 1.879-16.783l-0.097 0.505c-60.853 3.063-114.384 32.014-150.186 75.978l-0.297 0.377c-6.295-10.568-10.016-23.304-10.016-36.909 0-25.13 12.695-47.294 32.022-60.431l0.254-0.163c-12.132 0.314-23.437 3.576-33.312 9.092l0.366-0.188c0.124-35.187 24.968-64.536 58.065-71.594l0.481-0.086c-5.617-1.556-12.067-2.45-18.726-2.45-0.147 0-0.294 0-0.441 0.001h0.023c-0.214-0.003-0.466-0.004-0.718-0.004-4.632 0-9.15 0.488-13.506 1.415l0.423-0.075c9.735-29.126 36.392-49.904 68.020-50.753l0.099-0.002c-24.65-19.43-56.156-31.165-90.402-31.165-0.070 0-0.14 0-0.21 0h0.011c-6.123 0.001-12.15 0.406-18.058 1.188l0.694-0.075c31.842-20.983 70.896-33.473 112.867-33.473 114.337 0 207.026 92.689 207.026 207.026 0 0.498-0.002 0.996-0.005 1.494v-0.076c0 3.339 0 6.233 0 9.35 14.284 10.187 26.322 22.437 35.965 36.461l0.32 0.492z" />
<glyph unicode="&#xe914;" d="M512-64c-282.77 0-512 229.23-512 512s229.23 512 512 512c282.77 0 512-229.23 512-512v0c0-282.77-229.23-512-512-512v0zM512 915.478c-258.181 0-467.478-209.297-467.478-467.478s209.297-467.478 467.478-467.478c258.181 0 467.478 209.297 467.478 467.478v0c0 258.181-209.297 467.478-467.478 467.478v0z" />
<glyph unicode="&#xe915;" d="M363.965 299.965c-33.614 33.837-30.052 78.803-30.052 148.035s-4.452 113.753 29.83 148.035c18.974 17.801 44.576 28.737 72.731 28.737 0.726 0 1.451-0.007 2.174-0.022l-0.108 0.002c32.723 1.558 113.976 1.558 146.699 0 66.783-3.117 100.619-40.96 103.513-103.513 1.558-32.723 1.558-113.976 0-146.699-2.449-52.981-27.381-82.365-60.327-95.277-24.042-9.35-47.638-9.35-116.424-9.35h-39.179c-46.525 0-81.697 2.894-108.856 30.052zM637.329 322.226c22.261 22.261 20.703 52.090 20.703 125.329 0 47.416 0 53.203 0 71.903-3.784 82.365-66.783 74.129-144.918 74.129v0c-47.638 0-53.203 0-72.125 0-82.365-4.23-73.906-63.221-73.906-145.141 0-60.55-4.452-100.619 20.48-125.551s51.423-20.703 125.551-20.703 101.732-2.003 124.216 20.48zM420.73 448c0.022 50.39 40.876 91.231 91.27 91.231 50.407 0 91.27-40.863 91.27-91.27s-40.863-91.27-91.27-91.27c-25.213 0-48.038 10.223-64.556 26.751v0c-16.505 16.515-26.713 39.324-26.713 64.518 0 0.013 0 0.027 0 0.040v-0.002zM452.786 448c0-0.053 0-0.115 0-0.178 0-32.457 26.312-58.769 58.769-58.769s58.769 26.312 58.769 58.769c0 32.457-26.312 58.769-58.769 58.769-24.362 0-45.262-14.824-54.172-35.944l-0.145-0.386c-2.782-6.578-4.415-14.224-4.452-22.246v-0.015zM586.351 543.054c0.173 11.424 9.474 20.618 20.923 20.618 11.557 0 20.925-9.369 20.925-20.925s-9.369-20.925-20.925-20.925c-8.697 0-16.155 5.306-19.313 12.858l-0.051 0.138c-0.986 2.424-1.558 5.236-1.558 8.182 0 0.019 0 0.038 0 0.057v-0.003z" />
<glyph unicode="&#xe916;" d="M512-64c-282.77 0-512 229.23-512 512s229.23 512 512 512c282.77 0 512-229.23 512-512v0c0-282.77-229.23-512-512-512v0zM512 915.478c-258.181 0-467.478-209.297-467.478-467.478s209.297-467.478 467.478-467.478c258.181 0 467.478 209.297 467.478 467.478v0c0 258.181-209.297 467.478-467.478 467.478v0z" />
<glyph unicode="&#xe917;" d="M534.261 514.783v33.391c0 12.294 9.967 22.261 22.261 22.261v0h22.261v55.652h-44.522c-36.883 0-66.783-29.9-66.783-66.783v0-44.522h-44.522v-66.783h44.522v-178.087h66.783v178.087h44.522l22.261 66.783z" />
<glyph unicode="&#xe918;" horiz-adv-x="3021" d="M1024 38.4v321.28h35.84v-30.208c7.572 10.535 17.151 19.134 28.236 25.374l0.436 0.226c10.777 6.121 23.674 9.729 37.414 9.729 0.167 0 0.333-0.001 0.5-0.002h-0.026c0.145 0.001 0.316 0.001 0.487 0.001 18.902 0 36.464-5.738 51.038-15.568l-0.325 0.206c15.354-10.651 27.199-25.381 34.081-42.63l0.223-0.634c7.294-17.482 11.531-37.792 11.531-59.093 0-0.645-0.004-1.29-0.012-1.933l0.001 0.098c0.013-0.745 0.020-1.623 0.020-2.503 0-22.33-4.718-43.559-13.212-62.743l0.391 0.99c-7.884-18.309-20.68-33.247-36.736-43.546l-0.384-0.23c-14.47-9.437-32.174-15.065-51.19-15.104h-0.010c-0.399-0.008-0.87-0.012-1.342-0.012-12.408 0-24.108 3.034-34.398 8.4l0.412-0.196c-10.124 5.34-18.64 12.385-25.481 20.84l-0.119 0.152v-112.896zM1059.584 243.2c-0.182-2.29-0.286-4.958-0.286-7.651 0-21.958 6.912-42.303 18.678-58.976l-0.216 0.322c10.236-13.107 26.026-21.465 43.77-21.504h0.006c0.002 0 0.004 0 0.007 0 18.174 0 34.347 8.569 44.698 21.888l0.096 0.128c11.903 16.844 19.026 37.804 19.026 60.427 0 2.97-0.123 5.91-0.363 8.818l0.025-0.381c0.178 2.261 0.279 4.895 0.279 7.552 0 22.111-7.008 42.585-18.923 59.322l0.213-0.314c-9.997 13.356-25.748 21.93-43.506 22.016h-0.014c-18.31-0.512-34.394-9.607-44.431-23.389l-0.113-0.163c-12.016-16.87-19.211-37.9-19.211-60.609 0-2.634 0.097-5.246 0.287-7.832l-0.020 0.346z" />
<glyph unicode="&#xe919;" horiz-adv-x="3021" d="M1273.088 402.688v45.312h39.168v-45.312zM1273.088 127.488v232.192h39.168v-232.192z" />
<glyph unicode="&#xe91a;" horiz-adv-x="3021" d="M1372.416 127.488v232.192h35.584v-33.024c15.009 23.281 40.809 38.477 70.157 38.477 1.256 0 2.505-0.028 3.747-0.083l-0.177 0.006c0.305 0.004 0.665 0.006 1.025 0.006 13.508 0 26.356-2.828 37.984-7.923l-0.609 0.238c10.413-4.269 19.065-11.028 25.49-19.559l0.11-0.153c5.815-8.29 10.1-18.1 12.207-28.695l0.081-0.489c2.162-11.403 3.46-24.579 3.583-38.037l0.001-0.107v-142.848h-40.192v141.312c0.067 1.403 0.105 3.048 0.105 4.702 0 11.114-1.723 21.826-4.917 31.883l0.204-0.745c-3.2 8.127-8.929 14.683-16.202 18.848l-0.182 0.096c-7.475 4.513-16.502 7.183-26.152 7.183-0.436 0-0.871-0.005-1.304-0.016l0.064 0.001c-0.392 0.009-0.855 0.014-1.318 0.014-16.202 0-30.998-6.021-42.273-15.947l0.071 0.061c-11.66-13.693-18.753-31.588-18.753-51.139 0-3.36 0.209-6.671 0.616-9.921l-0.040 0.388v-128z" />
<glyph unicode="&#xe91b;" horiz-adv-x="3021" d="M1779.968 202.24l40.704-5.12c-5.365-23.014-18.139-42.453-35.623-56.157l-0.217-0.163c-18.396-11.951-40.896-19.057-65.057-19.057-31.406 0-60.008 12.007-81.464 31.681l0.089-0.081c-18.595 21.481-29.925 49.696-29.925 80.557 0 2.641 0.083 5.263 0.246 7.863l-0.018-0.356c-0.193 2.632-0.303 5.701-0.303 8.797 0 31.447 11.341 60.246 30.155 82.53l-0.157-0.19c18.724 19.892 45.228 32.279 74.625 32.279 0.765 0 1.528-0.008 2.289-0.025l-0.114 0.002c1.207 0.053 2.622 0.083 4.045 0.083 28.728 0 54.6-12.228 72.696-31.762l0.059-0.064c18.63-21.855 29.964-50.425 29.964-81.642 0-2.89-0.097-5.757-0.288-8.599l0.021 0.385q0-3.584 0-10.496h-173.056c-0.001-0.144-0.001-0.314-0.001-0.484 0-22.258 8.139-42.615 21.604-58.257l-0.099 0.117c11.748-12.475 28.375-20.243 46.816-20.243 0.551 0 1.101 0.007 1.649 0.021l-0.081-0.002c0.104-0.001 0.227-0.001 0.35-0.001 13.909 0 26.716 4.72 36.905 12.646l-0.135-0.101c11.159 9.234 19.595 21.389 24.166 35.297l0.154 0.543zM1651.968 265.984h129.536c-0.582 16.521-6.159 31.633-15.257 43.994l0.153-0.218c-11.116 13.944-28.101 22.802-47.155 22.802-0.522 0-1.043-0.007-1.561-0.020l0.077 0.002c-0.416 0.010-0.906 0.016-1.398 0.016-17.231 0-32.838-6.948-44.174-18.196l0.004 0.004c-12.562-12.491-20.552-29.57-21.244-48.511l-0.004-0.129z" />
<glyph unicode="&#xe91c;" horiz-adv-x="3021" d="M2022.4 156.16c-12.022-10.482-26.002-19.118-41.258-25.252l-0.982-0.348c-12.566-4.865-27.108-7.684-42.308-7.684-0.336 0-0.672 0.001-1.007 0.004h0.051c-2.166-0.197-4.684-0.31-7.229-0.31-19.882 0-38.16 6.868-52.591 18.362l0.172-0.132c-12.614 11.429-20.504 27.872-20.504 46.158 0 0.603 0.009 1.203 0.026 1.802l-0.002-0.088c-0.002 0.189-0.003 0.413-0.003 0.637 0 11.118 2.846 21.57 7.85 30.67l-0.166-0.33c4.989 9.222 11.806 16.857 20.018 22.646l0.206 0.138c8.156 5.476 17.614 9.86 27.737 12.641l0.679 0.159c9.646 2.396 21.492 4.469 33.567 5.778l1.249 0.11c25.988 2.426 49.823 7.22 72.683 14.239l-2.539-0.671q0 8.192 0 10.24c0.241 1.719 0.378 3.705 0.378 5.723 0 11.325-4.326 21.64-11.415 29.382l0.030-0.033c-10.941 8.419-24.837 13.493-39.918 13.493-1.718 0-3.421-0.066-5.106-0.195l0.224 0.014c-1.577 0.128-3.413 0.201-5.267 0.201-13.187 0-25.512-3.693-35.996-10.101l0.303 0.172c-9.952-8.673-16.944-20.515-19.401-33.942l-0.055-0.362-38.4 5.12c2.772 15.14 8.792 28.529 17.328 39.926l-0.176-0.246c8.999 10.717 20.804 18.803 34.289 23.149l0.527 0.147c14.781 5.21 31.826 8.22 49.573 8.22 1.022 0 2.042-0.010 3.060-0.030l-0.152 0.002c1.373 0.049 2.987 0.076 4.607 0.076 15.563 0 30.529-2.558 44.5-7.276l-0.98 0.287c10.885-3.566 20.119-9.661 27.346-17.612l0.046-0.052c5.823-7.131 10.109-15.751 12.212-25.193l0.076-0.407c1.351-9.199 2.122-19.819 2.122-30.618 0-2.016-0.027-4.026-0.080-6.029l0.006 0.295v-52.48c-0.13-4.608-0.204-10.031-0.204-15.472 0-19.070 0.911-37.927 2.692-56.53l-0.183 2.369c1.954-10.399 5.424-19.67 10.216-28.092l-0.232 0.444h-40.96c-3.51 7.87-5.884 17.003-6.638 26.591l-0.018 0.289zM2018.048 243.2c-18.637-6.878-40.378-12.1-62.914-14.721l-1.342-0.127c-12.721-1.412-24.333-4.206-35.331-8.268l1.027 0.332c-6.494-2.682-11.817-7.099-15.538-12.676l-0.078-0.124c-3.373-5.094-5.382-11.347-5.382-18.069 0-0.218 0.002-0.435 0.006-0.651v0.032c0.011-10.219 4.557-19.374 11.732-25.563l0.044-0.037c8.544-6.626 19.417-10.622 31.223-10.622 1.264 0 2.518 0.046 3.759 0.136l-0.166-0.010c0.523-0.012 1.14-0.019 1.758-0.019 14.172 0 27.5 3.61 39.117 9.96l-0.426-0.213c11.161 6.351 19.964 15.73 25.439 27.023l0.161 0.369c4.127 10.267 6.521 22.17 6.521 34.633 0 1.685-0.044 3.36-0.13 5.024l0.010-0.233z" />
<glyph unicode="&#xe91d;" horiz-adv-x="3021" d="M2118.912 38.4v321.28h35.84v-30.208c7.572 10.535 17.151 19.134 28.236 25.374l0.436 0.226c10.447 5.67 22.875 9.003 36.081 9.003 0.906 0 1.807-0.016 2.705-0.047l-0.13 0.004c0.145 0.001 0.316 0.001 0.487 0.001 18.902 0 36.464-5.738 51.038-15.568l-0.325 0.206c15.354-10.651 27.199-25.381 34.081-42.63l0.223-0.634c7.294-17.482 11.531-37.792 11.531-59.093 0-0.645-0.004-1.29-0.012-1.933l0.001 0.098c0.013-0.745 0.020-1.623 0.020-2.503 0-22.33-4.718-43.559-13.212-62.743l0.391 0.99c-7.884-18.309-20.68-33.247-36.736-43.546l-0.384-0.23c-14.47-9.437-32.174-15.065-51.19-15.104h-0.010c-0.399-0.008-0.87-0.012-1.342-0.012-12.408 0-24.108 3.034-34.398 8.4l0.412-0.196c-10.124 5.34-18.64 12.385-25.481 20.84l-0.119 0.152v-112.128zM2154.496 243.2c-0.182-2.29-0.286-4.958-0.286-7.651 0-21.958 6.912-42.303 18.678-58.976l-0.216 0.322c10.236-13.107 26.026-21.465 43.77-21.504h0.006c0.002 0 0.004 0 0.007 0 18.174 0 34.347 8.569 44.698 21.888l0.096 0.128c11.903 16.844 19.026 37.804 19.026 60.427 0 2.97-0.123 5.91-0.363 8.818l0.025-0.381c0.178 2.261 0.279 4.895 0.279 7.552 0 22.111-7.008 42.585-18.923 59.322l0.213-0.314c-9.997 13.356-25.748 21.93-43.506 22.016h-0.014c-18.31-0.512-34.394-9.607-44.431-23.389l-0.113-0.163c-12.016-16.87-19.211-37.9-19.211-60.609 0-2.634 0.097-5.246 0.287-7.832l-0.020 0.346z" />
<glyph unicode="&#xe91e;" horiz-adv-x="3021" d="M2367.744 38.4v321.28h35.84v-30.208c7.572 10.535 17.151 19.134 28.236 25.374l0.436 0.226c10.447 5.67 22.875 9.003 36.081 9.003 0.906 0 1.807-0.016 2.705-0.047l-0.13 0.004c0.145 0.001 0.316 0.001 0.487 0.001 18.902 0 36.464-5.738 51.038-15.568l-0.325 0.206c15.365-10.639 27.214-25.374 34.082-42.631l0.222-0.633c7.294-17.467 11.531-37.761 11.531-59.044 0-0.662-0.004-1.324-0.012-1.984l0.001 0.1c0.013-0.76 0.021-1.656 0.021-2.555 0-22.313-4.719-43.524-13.212-62.69l0.391 0.989c-7.884-18.309-20.68-33.247-36.736-43.546l-0.384-0.23c-14.47-9.437-32.174-15.065-51.19-15.104h-0.010c-12.801 0.193-24.769 3.585-35.194 9.41l0.378-0.194c-10.124 5.34-18.64 12.385-25.481 20.84l-0.119 0.152v-113.152zM2403.328 243.2c-0.182-2.29-0.286-4.958-0.286-7.651 0-21.958 6.912-42.303 18.678-58.976l-0.216 0.322c10.236-13.107 26.026-21.465 43.77-21.504h0.006c17.581 0.216 33.203 8.418 43.435 21.138l0.085 0.11c11.903 16.844 19.026 37.804 19.026 60.427 0 2.97-0.123 5.91-0.363 8.818l0.025-0.381c0.178 2.261 0.279 4.895 0.279 7.552 0 22.111-7.008 42.585-18.923 59.322l0.213-0.314c-9.997 13.356-25.748 21.93-43.506 22.016h-0.014c-18.31-0.512-34.394-9.607-44.431-23.389l-0.113-0.163c-11.276-16.507-18.005-36.898-18.005-58.862 0-2.98 0.124-5.931 0.367-8.848l-0.026 0.382z" />
<glyph unicode="&#xe91f;" horiz-adv-x="3021" d="M2615.808 127.488v320.512h39.168v-320.512z" />
<glyph unicode="&#xe920;" horiz-adv-x="3021" d="M2874.88 202.24l40.704-5.12c-5.365-23.014-18.139-42.453-35.623-56.157l-0.217-0.163c-18.642-12.352-41.53-19.707-66.137-19.707-31.242 0-59.715 11.857-81.164 31.317l0.101-0.090c-18.595 21.481-29.925 49.696-29.925 80.557 0 2.641 0.083 5.263 0.246 7.863l-0.018-0.356c-0.159 2.391-0.25 5.184-0.25 7.997 0 31.698 11.522 60.704 30.606 83.060l-0.148-0.178c18.726 19.912 45.243 32.313 74.657 32.313 1.204 0 2.403-0.021 3.597-0.062l-0.173 0.005c1.207 0.053 2.622 0.083 4.045 0.083 28.728 0 54.6-12.228 72.696-31.762l0.059-0.064c18.007-21.659 28.936-49.761 28.936-80.415 0-2.871-0.096-5.72-0.285-8.543l0.020 0.383q0-3.584 0-10.496h-172.8c0-0.056 0-0.122 0-0.188 0-22.395 8.24-42.866 21.854-58.546l-0.093 0.11c11.748-12.475 28.375-20.243 46.816-20.243 0.551 0 1.101 0.007 1.649 0.021l-0.081-0.002c0.53-0.017 1.153-0.026 1.779-0.026 13.171 0 25.353 4.232 35.26 11.411l-0.175-0.121c11.243 9.579 19.634 22.194 23.925 36.576l0.139 0.544zM2746.88 265.984h129.536c-0.447 16.583-5.946 31.799-15.005 44.259l0.157-0.227c-11.116 13.944-28.101 22.802-47.155 22.802-0.522 0-1.043-0.007-1.561-0.020l0.077 0.002c-0.416 0.010-0.906 0.016-1.398 0.016-17.231 0-32.838-6.948-44.174-18.196l0.004 0.004c-12.713-12.519-20.804-29.7-21.5-48.767l-0.004-0.129z" />
<glyph unicode="&#xe921;" horiz-adv-x="3021" d="M2976 127.488v44.8h44.8v-44.8z" />
<glyph unicode="&#xe922;" horiz-adv-x="3021" d="M147.456 588.288l-147.456 181.76 168.448-28.928-20.992 193.28 122.112-140.288 50.432 165.888 51.2-165.12 121.344 139.52-20.992-194.048 168.448 29.696-147.456-181.76zM206.848 700.928l-14.592 131.072 91.648-105.216 36.096 117.76 36.096-117.76 91.648 105.216-14.336-131.584 124.928 21.504-81.92-101.12h-312.832l-81.92 101.632z" />
<glyph unicode="&#xe923;" horiz-adv-x="3021" d="M513.792-64h-379.136l-126.208 123.904v371.456l126.208 123.904h378.88l126.464-123.904v-371.456zM196.608 263.424l106.752 104.704-156.672 152.32-104.448-102.4v-4.096zM460.8 522.24h-268.288l134.656-130.816zM220.928 240.64l106.24 104.96 102.4-100.096-106.24-104.704zM351.488 368.64l102.4-100.096 153.6 149.504-102.4 100.352zM347.904 117.248l106.752 104.704 152.32-147.968-106.496-104.448zM478.464 245.248l128-124.928v250.88zM173.312 240.384l-130.56 128v-256zM197.12 217.088l102.4-100.096-150.784-147.968-102.4 100.352zM453.12-30.72h-256l128 124.672z" />
<glyph unicode="&#xe924;" glyph-name="ic_arrow" horiz-adv-x="1755" d="M1295.148 938.576c-28.562 28.565-74.876 28.565-103.439 0-28.57-28.563-28.57-74.875 0-103.437l313.995-313.996h-1432.561c-40.397 0-73.143-32.748-73.143-73.143s32.746-73.143 73.143-73.143h1432.561l-313.995-313.996c-28.57-28.562-28.57-74.876 0-103.439 28.562-28.562 74.876-28.562 103.439 0l438.857 438.859c28.57 28.562 28.57 74.875 0 103.437l-438.857 438.857z" />
<glyph unicode="&#xe925;" glyph-name="ic_arrow-hover" horiz-adv-x="1755" d="M1295.148 938.576c-28.562 28.565-74.876 28.565-103.439 0-28.57-28.563-28.57-74.875 0-103.437l313.995-313.996h-1432.561c-40.397 0-73.143-32.748-73.143-73.143s32.746-73.143 73.143-73.143h1432.561l-313.995-313.996c-28.57-28.562-28.57-74.876 0-103.439 28.562-28.562 74.876-28.562 103.439 0l438.857 438.859c28.57 28.562 28.57 74.875 0 103.437l-438.857 438.857z" />
<glyph unicode="&#xe926;" horiz-adv-x="644" d="M190.171 213.943v-146.286c0-8.079 6.549-14.629 14.629-14.629h234.057c8.079 0 14.629 6.549 14.629 14.629v146.286c0 8.079-6.549 14.629-14.629 14.629h-234.057c-8.079 0-14.629-6.549-14.629-14.629zM219.429 199.314h204.8v-117.029h-204.8v117.029z" />
<glyph unicode="&#xe927;" horiz-adv-x="644" d="M117.029 960h409.6c8.079 0 14.629-6.55 14.629-14.629v-58.514c0-8.079-6.549-14.629-14.629-14.629h-14.629v-14.629h12.205c11.027 0 21.349 6.764 27.606 15.792l8.689 12.534c12.859 18.546 34.052 29.652 56.697 29.706 6.96 0.020 13.742-2.74 18.708-7.666 5.003-4.966 7.756-11.568 7.752-18.592v-64.252c0-47.367-10.483-82.016-32.048-105.928-19-21.070-44.472-31.361-66.951-40.438-26.116-10.549-50.78-20.512-62.752-45.044-4.416-9.052-3.262-17.78 3.252-24.577 5.322-5.554 13.264-8.871 21.244-8.871 3.388 0 6.524 0.603 9.324 1.792 12.442 5.288 13.665 19.842 13.284 28.046-0.382 8.278 6.056 15.299 14.38 15.68 8.321 0.328 15.382-6.024 15.764-14.302 1.238-26.778-10.566-48.096-31.577-57.024-6.567-2.79-13.692-4.204-21.175-4.204-16.077 0-32.183 6.796-43.087 18.179-1.616 1.687-3.071 3.463-4.416 5.291-14.079-21.012-45.245-55.118-63.927-72.58v-58.514c0-8.079-6.549-14.629-14.629-14.629h-11.839c3.027-14.801 7.728-32.806 14.201-50.094 8.7-23.236 19.588-42.383 31.702-52.306h141.479c8.079 0 14.629-6.549 14.629-14.629v-58.514c0-8.079-6.549-14.629-14.629-14.629h-14.629v-234.057h14.629c8.079 0 14.629-6.549 14.629-14.629v-58.514c0-8.079-6.549-14.629-14.629-14.629h-468.114c-8.079 0-14.629 6.549-14.629 14.629v58.514c0 8.079 6.549 14.629 14.629 14.629h14.629v234.057h-14.629c-8.079 0-14.629 6.549-14.629 14.629v58.514c0 8.079 6.549 14.629 14.629 14.629h141.479c12.112 9.923 23.001 29.070 31.702 52.306 6.472 17.288 11.175 35.293 14.201 50.094h-11.839c-8.079 0-14.629 6.549-14.629 14.629v58.514c-18.726 17.503-49.712 51.659-63.814 72.727-1.375-1.881-2.87-3.71-4.532-5.446-10.903-11.38-27.009-18.176-43.086-18.176-7.482 0-14.609 1.415-21.174 4.203-21.013 8.929-32.816 30.246-31.579 57.027 0.382 8.28 7.382 14.637 15.765 14.301 8.325-0.38 14.763-7.402 14.379-15.679-0.38-8.207 0.843-22.759 13.287-28.049 2.797-1.188 5.936-1.791 9.322-1.791 7.979 0 15.922 3.316 21.242 8.871 6.514 6.798 7.668 15.528 3.253 24.58-11.972 24.529-36.638 34.494-62.749 45.041-22.481 9.080-47.955 19.37-66.953 40.439-21.566 23.913-32.048 58.563-32.048 105.928v64.254c0 7.024 2.753 13.624 7.75 18.588 4.922 4.884 11.689 7.67 18.594 7.67h0.203c22.563-0.054 43.758-11.158 56.615-29.704l8.689-12.536c6.258-9.026 16.575-15.792 27.602-15.792h12.205v14.629h-14.629c-8.079 0-14.629 6.55-14.629 14.629v58.514c0 8.079 6.549 14.629 14.629 14.629zM482.743 872.229h-321.829v-93.889c0-95.175 43.529-185.723 120.204-242.568h81.644c76.68 56.845 119.981 147.393 119.981 242.568v93.889zM512 930.743h-380.343v-29.257h380.343v29.257zM234.29 316.343c-0.146-0.003-0.293-0.003-0.439 0h-131.451v-29.257h438.857v29.257h-306.967zM376.033 345.6c-8.596 12.933-15.397 27.815-20.726 42.048-7.946 21.222-13.407 43.216-16.614 60.352h-33.729c-3.207-17.136-8.667-39.13-16.614-60.352-5.329-14.234-12.131-29.115-20.727-42.048h108.409zM365.714 477.257v29.257h-87.771v-29.257h14.381c0.152 0.003 0.304 0.003 0.456 0h72.934zM131.657 257.829v-234.057h380.343v234.057h-380.343zM541.257-5.486h-438.857v-29.257h438.857v29.257zM54.512 739.231c14.347-15.909 34.503-24.051 55.841-32.669 9.589-3.875 19.601-7.924 29.319-12.882-7.295 27.389-8.016 55.827-8.016 84.658v50.003h-12.205c-20.95 0-40.555 10.861-52.445 28.015l-8.689 12.534c-6.517 9.402-16.842 15.408-28.143 16.534v-60.306c0-39.636 7.96-67.73 24.336-85.889zM533.309 706.563c21.34 8.619 41.494 16.758 55.839 32.669 16.377 18.158 24.333 46.253 24.333 85.889v60.298c-11.337-1.14-21.636-7.144-28.142-16.53l-8.689-12.532c-11.887-17.154-31.495-28.013-52.445-28.013h-12.205v-50.003c0-28.785-0.492-57.182-7.765-84.531 9.645 4.901 19.569 8.916 29.074 12.755z" />
<glyph unicode="&#xe928;" horiz-adv-x="644" d="M219.429 199.314h204.8v-117.029h-204.8v117.029z" />
<glyph unicode="&#xe929;" horiz-adv-x="644" d="M102.4 316.343h438.857v-29.257h-438.857v29.257z" />
<glyph unicode="&#xe92a;" horiz-adv-x="644" d="M131.657 930.743h380.343v-29.257h-380.343v29.257z" />
<glyph unicode="&#xe92b;" horiz-adv-x="644" d="M102.4-5.486h438.857v-29.257h-438.857v29.257z" />
<glyph unicode="&#xe92c;" horiz-adv-x="644" d="M277.943 506.514h87.771v-29.257h-87.771v29.257z" />
</font>
</defs>
</svg>
